<?xml version="1.0" encoding="UTF-8" standalone="no"?>
<!-- Created with Inkscape (http://www.inkscape.org/) -->

<svg
   xmlns:dc="http://purl.org/dc/elements/1.1/"
   xmlns:cc="http://creativecommons.org/ns#"
   xmlns:rdf="http://www.w3.org/1999/02/22-rdf-syntax-ns#"
   xmlns:svg="http://www.w3.org/2000/svg"
   xmlns="http://www.w3.org/2000/svg"
   xmlns:sodipodi="http://sodipodi.sourceforge.net/DTD/sodipodi-0.dtd"
   xmlns:inkscape="http://www.inkscape.org/namespaces/inkscape"
   width="210mm"
   height="240mm"
   viewBox="0 0 210 240"
   version="1.1"
   id="svg8"
   sodipodi:docname="git_concepts_mono.svg"
   inkscape:version="0.92.1 r">
  <defs
     id="defs2">
    <inkscape:path-effect
       effect="simplify"
       id="path-effect3698"
       is_visible="true"
       steps="1"
       threshold="0.00251534"
       smooth_angles="360"
       helper_size="0"
       simplify_individual_paths="false"
       simplify_just_coalesce="false"
       simplifyindividualpaths="false"
       simplifyJustCoalesce="false" />
  </defs>
  <sodipodi:namedview
     id="base"
     pagecolor="#ffffff"
     bordercolor="#666666"
     borderopacity="1.0"
     inkscape:pageopacity="0.0"
     inkscape:pageshadow="2"
     inkscape:zoom="0.64"
     inkscape:cx="392.98668"
     inkscape:cy="381.41659"
     inkscape:document-units="mm"
     inkscape:current-layer="layer1"
     showgrid="false"
     inkscape:window-width="1280"
     inkscape:window-height="920"
     inkscape:window-x="1413"
     inkscape:window-y="31"
     inkscape:window-maximized="0"
     inkscape:measure-start="203.871,238.71"
     inkscape:measure-end="0,0"
     units="mm"
     width="210mm" />
  <metadata
     id="metadata5">
    <rdf:RDF>
      <cc:Work
         rdf:about="">
        <dc:format>image/svg+xml</dc:format>
        <dc:type
           rdf:resource="http://purl.org/dc/dcmitype/StillImage" />
        <dc:title></dc:title>
        <dc:title></dc:title>
      </cc:Work>
    </rdf:RDF>
  </metadata>
  <g
     inkscape:label="Layer 1"
     inkscape:groupmode="layer"
     id="layer1"
     transform="translate(0,-57)">
    <path
       style="fill:#4caf50;fill-opacity:1;stroke:none;stroke-width:0.33662471;stroke-opacity:1"
       d="M 101.81128,61.451268 A 19.87715,22.59052 0 0 0 83.610127,75.029317 19.87715,22.59052 0 0 0 75.94662,73.259482 19.87715,22.59052 0 0 0 56.069634,95.850084 a 19.87715,22.59052 0 0 0 0.167012,2.762986 19.87715,22.59052 0 0 0 -17.409903,22.39456 19.87715,22.59052 0 0 0 19.87762,22.5906 19.87715,22.59052 0 0 0 6.074669,-1.09185 19.87715,22.59052 0 0 0 19.789349,20.60227 19.87715,22.59052 0 0 0 16.325909,-9.74977 19.87715,22.59052 0 0 0 17.68044,12.31671 19.87715,22.59052 0 0 0 19.77538,-20.50425 19.87715,22.59052 0 0 0 9.92103,3.04821 19.87715,22.59052 0 0 0 19.87698,-22.5906 19.87715,22.59052 0 0 0 -19.2953,-22.56746 19.87715,22.59052 0 0 0 1.5736,-8.751164 19.87715,22.59052 0 0 0 -19.87699,-22.590602 19.87715,22.59052 0 0 0 -10.4735,3.42259 19.87715,22.59052 0 0 0 -18.26465,-13.691046 z"
       id="path3706"
       inkscape:connector-curvature="0" />
    <path
       style="fill:#4caf50;fill-opacity:1;stroke:none;stroke-width:0.28468964;stroke-opacity:1"
       d="m 44.993807,174.02211 c -5.534086,0 -9.989052,4.28024 -9.989052,9.59734 v 17.29662 c 0,0.6092 0.06122,1.20419 0.173114,1.78129 -0.112062,0.56886 -0.173114,1.15486 -0.173114,1.75596 v 41.83673 l -10.053651,18.603 163.837546,0.71571 -15.63884,-18.60299 -0.38241,-0.002 c 0.005,-0.12541 0.0109,-0.25109 0.0109,-0.37776 v -42.17262 c 0,-0.27129 -0.0147,-0.53828 -0.0382,-0.80357 0.26556,-0.86587 0.41032,-1.783 0.41032,-2.73368 v -17.2961 c 0,-5.3171 -4.45549,-9.59735 -9.98958,-9.59735 z"
       id="rect4533"
       inkscape:connector-curvature="0" />
    <rect
       style="fill:#ffffff;fill-opacity:1;stroke:none;stroke-width:0.26458332;stroke-opacity:1"
       id="rect4544"
       width="119.37225"
       height="63.092854"
       x="45.064514"
       y="183.17491" />
    <rect
       style="fill:#ff8080;fill-opacity:1;stroke:none;stroke-width:0.26458332;stroke-opacity:1"
       id="rect4567"
       width="114.02688"
       height="23.897848"
       x="48.044949"
       y="217.28993"
       ry="2.5999999" />
    <rect
       ry="2.5999999"
       y="187.34642"
       x="48.044949"
       height="23.897848"
       width="114.02688"
       id="rect4569"
       style="fill:#4caf50;fill-opacity:1;stroke:none;stroke-width:0.26458332;stroke-opacity:1" />
    <rect
       style="fill:#ffffff;fill-opacity:1;stroke:none;stroke-width:0.24537045;stroke-opacity:1"
       id="rect4571"
       width="98.067886"
       height="23.897848"
       x="50.784924"
       y="103.06149"
       ry="2.5999999" />
  </g>
  <g
     inkscape:groupmode="layer"
     id="layer2"
     inkscape:label="text"
     style="display:inline"
     transform="translate(0,-57)">
    <text
       xml:space="preserve"
       style="font-style:normal;font-weight:normal;font-size:10.58333302px;line-height:1.25;font-family:sans-serif;letter-spacing:0px;word-spacing:0px;fill:#ffffff;fill-opacity:1;stroke:none;stroke-width:0.26458332"
       x="75.260612"
       y="231.72098"
       id="text4586"><tspan
         sodipodi:role="line"
         id="tspan4584"
         x="75.260612"
         y="231.72098"
         style="font-style:normal;font-variant:normal;font-weight:600;font-stretch:normal;font-size:9.87777805px;line-height:47;font-family:'Apple SD Gothic Neo';-inkscape-font-specification:'Apple SD Gothic Neo Semi-Bold';fill:#ffffff;fill-opacity:1;stroke-width:0.26458332">staging area</tspan></text>
    <text
       id="text4590"
       y="118.76698"
       x="56.071815"
       style="font-style:normal;font-weight:normal;font-size:10.58333301999999954px;line-height:1.25;font-family:sans-serif;letter-spacing:0px;word-spacing:0px;fill:#4caf50;fill-opacity:1;stroke:none;stroke-width:0.26458332;"
       xml:space="preserve"><tspan
         style="font-style:normal;font-variant:normal;font-weight:600;font-stretch:normal;font-size:9.87777804999999987px;line-height:47;font-family:'Apple SD Gothic Neo';-inkscape-font-specification:'Apple SD Gothic Neo Semi-Bold';fill:#4caf50;fill-opacity:1;stroke-width:0.26458332;"
         y="118.76698"
         x="56.071815"
         id="tspan4588"
         sodipodi:role="line">github.com(remote)</tspan><tspan
         style="font-style:normal;font-variant:normal;font-weight:600;font-stretch:normal;font-size:9.87777804999999987px;line-height:47;font-family:'Apple SD Gothic Neo';-inkscape-font-specification:'Apple SD Gothic Neo Semi-Bold';fill:#4caf50;fill-opacity:1;stroke-width:0.26458332;"
         y="358.08081"
         x="56.071815"
         sodipodi:role="line"
         id="tspan4592" /></text>
    <text
       xml:space="preserve"
       style="font-style:normal;font-weight:normal;font-size:10.58333302px;line-height:1.25;font-family:sans-serif;letter-spacing:0px;word-spacing:0px;fill:#ffffff;fill-opacity:1;stroke:none;stroke-width:0.26458332"
       x="64.486694"
       y="202.27673"
       id="text4575"><tspan
         sodipodi:role="line"
         id="tspan4573"
         x="64.486694"
         y="202.27673"
         style="font-style:normal;font-variant:normal;font-weight:600;font-stretch:normal;font-size:9.87777805px;line-height:47;font-family:'Apple SD Gothic Neo';-inkscape-font-specification:'Apple SD Gothic Neo Semi-Bold';fill:#ffffff;fill-opacity:1;stroke-width:0.26458332">working directory</tspan></text>
  </g>
  <g
     inkscape:groupmode="layer"
     id="layer3"
     inkscape:label="change"
     transform="translate(0,-57)">
    <ellipse
       style="fill:#ff0000;fill-opacity:1;stroke:none;stroke-width:0.26458332;stroke-opacity:1"
       id="path4616"
       cx="89.338486"
       cy="280.24384"
       rx="7.979497"
       ry="7.7695107" />
    <text
       xml:space="preserve"
       style="font-style:normal;font-weight:normal;font-size:10.58333302px;line-height:1.25;font-family:sans-serif;letter-spacing:0px;word-spacing:0px;display:inline;fill:#000000;fill-opacity:1;stroke:none;stroke-width:0.26458332"
       x="99.386398"
       y="282.90543"
       id="text4624"><tspan
         sodipodi:role="line"
         id="tspan4622"
         x="99.386398"
         y="282.90543"
         style="font-style:normal;font-variant:normal;font-weight:600;font-stretch:normal;font-size:9.87777805px;line-height:47;font-family:'Apple SD Gothic Neo';-inkscape-font-specification:'Apple SD Gothic Neo Semi-Bold';fill:#000000;stroke-width:0.26458332">change</tspan></text>
  </g>
</svg>
